<svg width="128" height="46" viewBox="0 0 128 46" fill="none" xmlns="http://www.w3.org/2000/svg">
<rect width="28" height="28" rx="8.6747" fill="#2B7F75"/>
<path fill-rule="evenodd" clip-rule="evenodd" d="M13.9992 6.51514C14.1769 6.51494 14.3501 6.57124 14.4937 6.67589C14.6373 6.78054 14.7439 6.92812 14.7982 7.09734L18.4702 18.5726L19.9073 14.0826C19.9613 13.9134 20.0676 13.7657 20.2111 13.6609C20.3545 13.556 20.5275 13.4994 20.7051 13.4993H22.102C22.3242 13.4993 22.5374 13.5876 22.6946 13.7448C22.8518 13.902 22.9401 14.1151 22.9401 14.3374C22.9401 14.5597 22.8518 14.7729 22.6946 14.9301C22.5374 15.0872 22.3242 15.1755 22.102 15.1755H21.3164L19.2681 21.5775C19.2137 21.7464 19.1072 21.8937 18.9638 21.9983C18.8205 22.1028 18.6476 22.1591 18.4702 22.1591C18.2928 22.1591 18.1199 22.1028 17.9765 21.9983C17.8331 21.8937 17.7266 21.7464 17.6723 21.5775L14.0059 10.1201L11.4469 18.2218C11.3941 18.3887 11.2903 18.5349 11.1502 18.6399C11.01 18.7448 10.8405 18.8033 10.6655 18.807C10.4904 18.8107 10.3186 18.7594 10.1742 18.6605C10.0297 18.5615 9.91988 18.4198 9.86008 18.2553L8.4476 14.371L8.36938 14.6034C8.31381 14.7702 8.20719 14.9153 8.0646 15.0182C7.92202 15.1211 7.75068 15.1765 7.57485 15.1766H5.89865C5.67637 15.1766 5.4632 15.0883 5.30602 14.9312C5.14885 14.774 5.06055 14.5608 5.06055 14.3385C5.06055 14.1163 5.14885 13.9031 5.30602 13.7459C5.4632 13.5887 5.67637 13.5004 5.89865 13.5004H6.97142L7.61732 11.5594C7.67207 11.3941 7.77697 11.2499 7.91744 11.1469C8.0579 11.044 8.22695 10.9873 8.40109 10.9849C8.57524 10.9824 8.74582 11.0343 8.88913 11.1332C9.03245 11.2322 9.14137 11.3733 9.20077 11.537L10.592 15.3644L13.2013 7.10181C13.2547 6.93194 13.3609 6.78351 13.5043 6.67802C13.6478 6.57253 13.8211 6.51548 13.9992 6.51514Z" fill="white"/>
<path d="M39.3572 22.7191L35 5.28088H38.7539L42.0386 19.8869H41.0331L44.4965 5.28088H48.0716L51.535 19.8869H50.5295L53.8142 5.28088H57.5681L53.2109 22.7191H49.1889L45.7031 8.6749H46.865L43.3792 22.7191H39.3572Z" fill="#1A1C1E"/>
<path d="M63.5778 23C62.2818 23 61.1571 22.7035 60.2037 22.1105C59.2503 21.502 58.513 20.6905 57.9916 19.6762C57.4702 18.6619 57.2095 17.5384 57.2095 16.3056C57.2095 15.026 57.4777 13.8869 58.0139 12.8882C58.5651 11.8895 59.3025 11.1014 60.2261 10.5241C61.1496 9.94668 62.1924 9.658 63.3543 9.658C64.3226 9.658 65.1791 9.82185 65.924 10.1495C66.6688 10.4616 67.2944 10.9064 67.8009 11.4837C68.3223 12.0611 68.717 12.7321 68.9852 13.4967C69.2533 14.2458 69.3874 15.065 69.3874 15.9545C69.3874 16.2042 69.3725 16.4538 69.3427 16.7035C69.3278 16.9376 69.2905 17.1404 69.231 17.3121H60.092V14.7373H67.3317L65.7452 15.9545C65.8942 15.2835 65.8867 14.6905 65.7228 14.1756C65.559 13.645 65.2685 13.2315 64.8514 12.935C64.4492 12.6229 63.9502 12.4668 63.3543 12.4668C62.7734 12.4668 62.2743 12.6151 61.8572 12.9116C61.4401 13.2081 61.1273 13.645 60.9187 14.2224C60.7102 14.7997 60.6283 15.502 60.673 16.329C60.6134 17.0468 60.6953 17.6788 60.9187 18.225C61.1422 18.7711 61.4848 19.2003 61.9466 19.5124C62.4084 19.8088 62.967 19.9571 63.6225 19.9571C64.2183 19.9571 64.7248 19.8322 65.1419 19.5826C65.5739 19.3329 65.9091 18.9896 66.1474 18.5527L68.8288 19.8869C68.5904 20.5111 68.2106 21.0572 67.6892 21.5254C67.1827 21.9935 66.5794 22.3602 65.8793 22.6255C65.1791 22.8752 64.412 23 63.5778 23Z" fill="#1A1C1E"/>
<path d="M78.9359 23C77.7591 23 76.6642 22.7737 75.6512 22.3212C74.6531 21.8687 73.7817 21.2445 73.0369 20.4486C72.307 19.6372 71.7334 18.6853 71.3163 17.593C70.8992 16.5007 70.6907 15.2991 70.6907 13.9883C70.6907 12.6931 70.8918 11.4994 71.294 10.407C71.7111 9.29909 72.2921 8.3472 73.0369 7.55137C73.7817 6.73992 74.6531 6.11573 75.6512 5.6788C76.6493 5.22627 77.7442 5 78.9359 5C80.1127 5 81.1629 5.21066 82.0865 5.63199C83.0249 6.05332 83.8145 6.60728 84.455 7.29389C85.0955 7.96489 85.5573 8.69831 85.8404 9.49415L83.4718 10.6645C83.1143 9.72822 82.5408 8.97139 81.7513 8.39402C80.9767 7.80104 80.0382 7.50455 78.9359 7.50455C77.8335 7.50455 76.8578 7.77763 76.0087 8.3238C75.1596 8.86996 74.4967 9.62679 74.02 10.5943C73.5583 11.5618 73.3274 12.6931 73.3274 13.9883C73.3274 15.2835 73.5583 16.4226 74.02 17.4057C74.4967 18.3732 75.1596 19.13 76.0087 19.6762C76.8578 20.2068 77.8335 20.472 78.9359 20.472C80.0382 20.472 80.9767 20.1834 81.7513 19.606C82.5408 19.0286 83.1143 18.2718 83.4718 17.3355L85.8404 18.5059C85.5573 19.2861 85.0955 20.0195 84.455 20.7061C83.8145 21.3927 83.0249 21.9467 82.0865 22.368C81.1629 22.7893 80.1127 23 78.9359 23Z" fill="#1A1C1E"/>
<path d="M91.2607 23C90.4414 23 89.7189 22.8518 89.0933 22.5553C88.4825 22.2432 88.0058 21.8218 87.6632 21.2913C87.3206 20.7451 87.1493 20.1053 87.1493 19.3719C87.1493 18.6853 87.2908 18.0689 87.5738 17.5228C87.8718 16.9766 88.3261 16.5163 88.9368 16.1417C89.5476 15.7672 90.3148 15.502 91.2383 15.3459L95.4391 14.6203V16.7035L91.7299 17.3823C91.0596 17.5072 90.568 17.7334 90.2552 18.0611C89.9424 18.3732 89.7859 18.7789 89.7859 19.2783C89.7859 19.762 89.9573 20.1599 90.2999 20.472C90.6574 20.7685 91.1117 20.9168 91.6629 20.9168C92.3481 20.9168 92.944 20.7607 93.4505 20.4486C93.9718 20.1365 94.374 19.723 94.6571 19.2081C94.9401 18.6775 95.0816 18.0923 95.0816 17.4525V14.199C95.0816 13.5748 94.8582 13.0676 94.4113 12.6775C93.9793 12.2718 93.3983 12.0689 92.6684 12.0689C91.9981 12.0689 91.4097 12.2562 90.9032 12.6307C90.4116 12.9896 90.0466 13.4577 89.8083 14.0351L87.7079 12.935C87.9313 12.3108 88.2963 11.7646 88.8028 11.2965C89.3093 10.8127 89.8977 10.4382 90.568 10.173C91.2532 9.90767 91.9757 9.77503 92.7354 9.77503C93.6888 9.77503 94.5305 9.96229 95.2604 10.3368C96.0052 10.7113 96.5787 11.2341 96.9809 11.9051C97.398 12.5605 97.6066 13.3251 97.6066 14.199V22.7191H95.1933V20.4252L95.7073 20.4954C95.4242 21.0104 95.0593 21.4551 94.6124 21.8296C94.1804 22.2042 93.6814 22.4928 93.1153 22.6957C92.5641 22.8986 91.9459 23 91.2607 23Z" fill="#1A1C1E"/>
<path d="M100.112 22.7191V10.0559H102.525V12.6073L102.302 12.2328C102.57 11.4057 103.002 10.8127 103.598 10.4538C104.194 10.0793 104.909 9.89207 105.743 9.89207H106.48V12.303H105.43C104.596 12.303 103.918 12.5761 103.397 13.1222C102.89 13.6528 102.637 14.4174 102.637 15.4161V22.7191H100.112Z" fill="#1A1C1E"/>
<path d="M113.436 23C112.23 23 111.157 22.7113 110.219 22.1339C109.295 21.541 108.573 20.7451 108.051 19.7464C107.53 18.7321 107.269 17.6008 107.269 16.3524C107.269 15.0728 107.53 13.9415 108.051 12.9584C108.587 11.9753 109.302 11.2029 110.196 10.6411C111.09 10.0637 112.103 9.77503 113.235 9.77503C114.144 9.77503 114.956 9.93888 115.671 10.2666C116.386 10.5943 116.989 11.0468 117.481 11.6242C117.972 12.186 118.345 12.8335 118.598 13.567C118.866 14.3004 119 15.0806 119 15.9077C119 16.1105 118.993 16.3212 118.978 16.5397C118.963 16.7581 118.933 16.961 118.888 17.1482H109.258V15.0416H117.458L116.252 16.0013C116.401 15.2367 116.348 14.5579 116.095 13.9649C115.857 13.3563 115.484 12.8804 114.978 12.5371C114.486 12.1782 113.905 11.9987 113.235 11.9987C112.565 11.9987 111.969 12.1782 111.448 12.5371C110.926 12.8804 110.524 13.3797 110.241 14.0351C109.958 14.6749 109.846 15.4551 109.906 16.3758C109.831 17.2341 109.943 17.9831 110.241 18.6229C110.554 19.2627 110.986 19.762 111.537 20.1209C112.103 20.4798 112.743 20.6593 113.459 20.6593C114.188 20.6593 114.807 20.4876 115.313 20.1443C115.835 19.801 116.244 19.3563 116.542 18.8101L118.598 19.8635C118.359 20.4564 117.987 20.9948 117.481 21.4785C116.989 21.9467 116.393 22.3212 115.693 22.6021C115.008 22.8674 114.255 23 113.436 23Z" fill="#1A1C1E"/>
<path d="M0.83 44V36.55H1.73L4.52 40.52H4.06L6.83 36.55H7.73V44H6.74V37.79L7.09 37.9L4.32 41.8H4.24L1.5 37.9L1.81 37.79V44H0.83ZM11.8547 44.12C11.3347 44.12 10.8714 43.9967 10.4647 43.75C10.058 43.5033 9.73802 43.1667 9.50469 42.74C9.27135 42.3067 9.15469 41.8233 9.15469 41.29C9.15469 40.75 9.26802 40.27 9.49469 39.85C9.72802 39.43 10.0414 39.1 10.4347 38.86C10.8347 38.6133 11.2814 38.49 11.7747 38.49C12.1747 38.49 12.528 38.5633 12.8347 38.71C13.148 38.85 13.4114 39.0433 13.6247 39.29C13.8447 39.53 14.0114 39.8067 14.1247 40.12C14.2447 40.4267 14.3047 40.7467 14.3047 41.08C14.3047 41.1533 14.298 41.2367 14.2847 41.33C14.278 41.4167 14.268 41.5 14.2547 41.58H9.83469V40.78H13.7147L13.2747 41.14C13.3347 40.7933 13.3014 40.4833 13.1747 40.21C13.048 39.9367 12.8614 39.72 12.6147 39.56C12.368 39.4 12.088 39.32 11.7747 39.32C11.4614 39.32 11.1747 39.4 10.9147 39.56C10.6547 39.72 10.4514 39.95 10.3047 40.25C10.1647 40.5433 10.108 40.8933 10.1347 41.3C10.108 41.6933 10.168 42.04 10.3147 42.34C10.468 42.6333 10.6814 42.8633 10.9547 43.03C11.2347 43.19 11.538 43.27 11.8647 43.27C12.2247 43.27 12.528 43.1867 12.7747 43.02C13.0214 42.8533 13.2214 42.64 13.3747 42.38L14.1547 42.78C14.048 43.0267 13.8814 43.2533 13.6547 43.46C13.4347 43.66 13.1714 43.82 12.8647 43.94C12.5647 44.06 12.228 44.12 11.8547 44.12ZM18.0673 44.12C17.5606 44.12 17.1039 43.9967 16.6973 43.75C16.2973 43.5033 15.9806 43.1667 15.7473 42.74C15.5139 42.3133 15.3973 41.8367 15.3973 41.31C15.3973 40.77 15.5139 40.29 15.7473 39.87C15.9806 39.4433 16.2973 39.1067 16.6973 38.86C17.1039 38.6133 17.5606 38.49 18.0673 38.49C18.5139 38.49 18.9106 38.5867 19.2573 38.78C19.6039 38.9667 19.8773 39.22 20.0773 39.54L19.9273 39.77V36.43H20.8673V44H19.9573V42.85L20.0773 43.01C19.8906 43.3633 19.6173 43.6367 19.2573 43.83C18.9039 44.0233 18.5073 44.12 18.0673 44.12ZM18.1473 43.22C18.4873 43.22 18.7906 43.1367 19.0573 42.97C19.3239 42.8033 19.5339 42.5767 19.6873 42.29C19.8473 41.9967 19.9273 41.67 19.9273 41.31C19.9273 40.9433 19.8473 40.6167 19.6873 40.33C19.5339 40.0367 19.3239 39.8067 19.0573 39.64C18.7906 39.4733 18.4873 39.39 18.1473 39.39C17.8139 39.39 17.5106 39.4767 17.2373 39.65C16.9706 39.8167 16.7606 40.0433 16.6073 40.33C16.4539 40.61 16.3773 40.9367 16.3773 41.31C16.3773 41.67 16.4539 41.9967 16.6073 42.29C16.7606 42.5767 16.9706 42.8033 17.2373 42.97C17.5039 43.1367 17.8073 43.22 18.1473 43.22ZM22.4067 44V38.61H23.3367V44H22.4067ZM22.4067 37.75V36.55H23.3367V37.75H22.4067ZM27.3798 44.12C26.8531 44.12 26.3831 43.9967 25.9698 43.75C25.5631 43.5033 25.2431 43.1667 25.0098 42.74C24.7764 42.3133 24.6598 41.8333 24.6598 41.3C24.6598 40.76 24.7764 40.28 25.0098 39.86C25.2431 39.44 25.5631 39.1067 25.9698 38.86C26.3831 38.6133 26.8531 38.49 27.3798 38.49C27.7331 38.49 28.0631 38.5533 28.3698 38.68C28.6764 38.8067 28.9464 38.9767 29.1798 39.19C29.4131 39.4033 29.5831 39.6533 29.6898 39.94L28.8598 40.34C28.7331 40.06 28.5398 39.8333 28.2798 39.66C28.0198 39.48 27.7198 39.39 27.3798 39.39C27.0531 39.39 26.7564 39.4733 26.4898 39.64C26.2298 39.8067 26.0231 40.0333 25.8698 40.32C25.7164 40.6067 25.6398 40.9367 25.6398 41.31C25.6398 41.67 25.7164 41.9967 25.8698 42.29C26.0231 42.5767 26.2298 42.8033 26.4898 42.97C26.7564 43.1367 27.0531 43.22 27.3798 43.22C27.7198 43.22 28.0198 43.1333 28.2798 42.96C28.5398 42.78 28.7331 42.5433 28.8598 42.25L29.6898 42.67C29.5831 42.95 29.4131 43.2 29.1798 43.42C28.9464 43.6333 28.6764 43.8033 28.3698 43.93C28.0631 44.0567 27.7331 44.12 27.3798 44.12ZM32.5168 44.12C32.1635 44.12 31.8501 44.0567 31.5768 43.93C31.3101 43.7967 31.1001 43.6167 30.9468 43.39C30.7935 43.1567 30.7168 42.89 30.7168 42.59C30.7168 42.3033 30.7768 42.0467 30.8968 41.82C31.0235 41.5867 31.2168 41.39 31.4768 41.23C31.7435 41.07 32.0768 40.9567 32.4768 40.89L34.4768 40.56V41.34L32.6868 41.64C32.3401 41.7 32.0868 41.81 31.9268 41.97C31.7735 42.13 31.6968 42.3267 31.6968 42.56C31.6968 42.78 31.7835 42.9633 31.9568 43.11C32.1368 43.2567 32.3601 43.33 32.6268 43.33C32.9668 43.33 33.2601 43.26 33.5068 43.12C33.7601 42.9733 33.9568 42.7767 34.0968 42.53C34.2435 42.2833 34.3168 42.01 34.3168 41.71V40.34C34.3168 40.0467 34.2068 39.81 33.9868 39.63C33.7735 39.4433 33.4901 39.35 33.1368 39.35C32.8301 39.35 32.5568 39.43 32.3168 39.59C32.0835 39.7433 31.9101 39.95 31.7968 40.21L30.9868 39.79C31.0868 39.5433 31.2468 39.3233 31.4668 39.13C31.6868 38.93 31.9435 38.7733 32.2368 38.66C32.5301 38.5467 32.8368 38.49 33.1568 38.49C33.5701 38.49 33.9335 38.57 34.2468 38.73C34.5601 38.8833 34.8035 39.1 34.9768 39.38C35.1568 39.6533 35.2468 39.9733 35.2468 40.34V44H34.3368V42.98L34.5068 43.04C34.3935 43.2533 34.2401 43.44 34.0468 43.6C33.8535 43.76 33.6268 43.8867 33.3668 43.98C33.1068 44.0733 32.8235 44.12 32.5168 44.12ZM36.7887 44V36.43H37.7187V44H36.7887ZM40.4803 44L43.1503 36.55H44.3103L46.9803 44H45.9303L45.3203 42.25H42.1403L41.5303 44H40.4803ZM42.4503 41.35H45.0103L43.5903 37.26H43.8703L42.4503 41.35ZM50.1638 44.12C49.6571 44.12 49.2004 43.9967 48.7938 43.75C48.3938 43.5033 48.0771 43.1667 47.8438 42.74C47.6104 42.3133 47.4938 41.8367 47.4938 41.31C47.4938 40.77 47.6104 40.29 47.8438 39.87C48.0771 39.4433 48.3938 39.1067 48.7938 38.86C49.2004 38.6133 49.6571 38.49 50.1638 38.49C50.6104 38.49 51.0071 38.5867 51.3538 38.78C51.7004 38.9667 51.9738 39.22 52.1738 39.54L52.0238 39.77V36.43H52.9638V44H52.0538V42.85L52.1738 43.01C51.9871 43.3633 51.7138 43.6367 51.3538 43.83C51.0004 44.0233 50.6038 44.12 50.1638 44.12ZM50.2438 43.22C50.5838 43.22 50.8871 43.1367 51.1538 42.97C51.4204 42.8033 51.6304 42.5767 51.7838 42.29C51.9438 41.9967 52.0238 41.67 52.0238 41.31C52.0238 40.9433 51.9438 40.6167 51.7838 40.33C51.6304 40.0367 51.4204 39.8067 51.1538 39.64C50.8871 39.4733 50.5838 39.39 50.2438 39.39C49.9104 39.39 49.6071 39.4767 49.3338 39.65C49.0671 39.8167 48.8571 40.0433 48.7038 40.33C48.5504 40.61 48.4738 40.9367 48.4738 41.31C48.4738 41.67 48.5504 41.9967 48.7038 42.29C48.8571 42.5767 49.0671 42.8033 49.3338 42.97C49.6004 43.1367 49.9038 43.22 50.2438 43.22ZM54.5032 44V38.61H55.4132V39.71L55.2832 39.54C55.4165 39.2 55.6299 38.94 55.9232 38.76C56.2165 38.58 56.5465 38.49 56.9132 38.49C57.3332 38.49 57.7099 38.6067 58.0432 38.84C58.3832 39.0733 58.6165 39.38 58.7432 39.76L58.4832 39.77C58.6232 39.35 58.8599 39.0333 59.1932 38.82C59.5265 38.6 59.8965 38.49 60.3032 38.49C60.6765 38.49 61.0132 38.5767 61.3132 38.75C61.6199 38.9233 61.8632 39.1633 62.0432 39.47C62.2232 39.7767 62.3132 40.1233 62.3132 40.51V44H61.3732V40.81C61.3732 40.51 61.3199 40.2567 61.2132 40.05C61.1065 39.8433 60.9599 39.6833 60.7732 39.57C60.5932 39.45 60.3799 39.39 60.1332 39.39C59.8932 39.39 59.6765 39.45 59.4832 39.57C59.2965 39.6833 59.1465 39.8467 59.0332 40.06C58.9265 40.2667 58.8732 40.5167 58.8732 40.81V44H57.9332V40.81C57.9332 40.51 57.8799 40.2567 57.7732 40.05C57.6665 39.8433 57.5199 39.6833 57.3332 39.57C57.1532 39.45 56.9399 39.39 56.6932 39.39C56.4532 39.39 56.2365 39.45 56.0432 39.57C55.8565 39.6833 55.7065 39.8467 55.5932 40.06C55.4865 40.2667 55.4332 40.5167 55.4332 40.81V44H54.5032ZM63.7341 44V38.61H64.6641V44H63.7341ZM63.7341 37.75V36.55H64.6641V37.75H63.7341ZM66.2071 44V38.61H67.1171V39.66L66.9671 39.57C67.1004 39.23 67.3138 38.9667 67.6071 38.78C67.9071 38.5867 68.2571 38.49 68.6571 38.49C69.0438 38.49 69.3871 38.5767 69.6871 38.75C69.9938 38.9233 70.2338 39.1633 70.4071 39.47C70.5871 39.7767 70.6771 40.1233 70.6771 40.51V44H69.7371V40.81C69.7371 40.51 69.6838 40.2567 69.5771 40.05C69.4704 39.8433 69.3171 39.6833 69.1171 39.57C68.9238 39.45 68.7004 39.39 68.4471 39.39C68.1938 39.39 67.9671 39.45 67.7671 39.57C67.5738 39.6833 67.4204 39.8467 67.3071 40.06C67.1938 40.2667 67.1371 40.5167 67.1371 40.81V44H66.2071ZM74.0464 44V36.55H76.4864C77.2397 36.55 77.8964 36.7033 78.4564 37.01C79.0164 37.3167 79.4497 37.75 79.7564 38.31C80.0631 38.8633 80.2164 39.5167 80.2164 40.27C80.2164 41.0167 80.0631 41.67 79.7564 42.23C79.4497 42.79 79.0164 43.2267 78.4564 43.54C77.8964 43.8467 77.2397 44 76.4864 44H74.0464ZM75.0264 43.1H76.4964C77.0497 43.1 77.5264 42.9833 77.9264 42.75C78.3331 42.5167 78.6464 42.19 78.8664 41.77C79.0864 41.3433 79.1964 40.8433 79.1964 40.27C79.1964 39.69 79.0831 39.19 78.8564 38.77C78.6364 38.35 78.3231 38.0267 77.9164 37.8C77.5164 37.5667 77.0431 37.45 76.4964 37.45H75.0264V43.1ZM82.9602 44.12C82.6068 44.12 82.2935 44.0567 82.0202 43.93C81.7535 43.7967 81.5435 43.6167 81.3902 43.39C81.2368 43.1567 81.1602 42.89 81.1602 42.59C81.1602 42.3033 81.2202 42.0467 81.3402 41.82C81.4668 41.5867 81.6602 41.39 81.9202 41.23C82.1868 41.07 82.5202 40.9567 82.9202 40.89L84.9202 40.56V41.34L83.1302 41.64C82.7835 41.7 82.5302 41.81 82.3702 41.97C82.2168 42.13 82.1402 42.3267 82.1402 42.56C82.1402 42.78 82.2268 42.9633 82.4002 43.11C82.5802 43.2567 82.8035 43.33 83.0702 43.33C83.4102 43.33 83.7035 43.26 83.9502 43.12C84.2035 42.9733 84.4002 42.7767 84.5402 42.53C84.6868 42.2833 84.7602 42.01 84.7602 41.71V40.34C84.7602 40.0467 84.6502 39.81 84.4302 39.63C84.2168 39.4433 83.9335 39.35 83.5802 39.35C83.2735 39.35 83.0002 39.43 82.7602 39.59C82.5268 39.7433 82.3535 39.95 82.2402 40.21L81.4302 39.79C81.5302 39.5433 81.6902 39.3233 81.9102 39.13C82.1302 38.93 82.3868 38.7733 82.6802 38.66C82.9735 38.5467 83.2802 38.49 83.6002 38.49C84.0135 38.49 84.3768 38.57 84.6902 38.73C85.0035 38.8833 85.2468 39.1 85.4202 39.38C85.6002 39.6533 85.6902 39.9733 85.6902 40.34V44H84.7802V42.98L84.9502 43.04C84.8368 43.2533 84.6835 43.44 84.4902 43.6C84.2968 43.76 84.0702 43.8867 83.8102 43.98C83.5502 44.0733 83.2668 44.12 82.9602 44.12ZM89.1621 44.12C88.6221 44.12 88.1521 43.9867 87.7521 43.72C87.3521 43.4533 87.0688 43.0933 86.9021 42.64L87.6421 42.28C87.7954 42.6 88.0054 42.8533 88.2721 43.04C88.5388 43.2267 88.8354 43.32 89.1621 43.32C89.4554 43.32 89.6988 43.25 89.8921 43.11C90.0854 42.97 90.1821 42.7867 90.1821 42.56C90.1821 42.4 90.1354 42.2733 90.0421 42.18C89.9554 42.08 89.8488 42.0033 89.7221 41.95C89.5954 41.89 89.4788 41.8467 89.3721 41.82L88.5621 41.59C88.0754 41.45 87.7188 41.25 87.4921 40.99C87.2721 40.73 87.1621 40.4267 87.1621 40.08C87.1621 39.76 87.2421 39.4833 87.4021 39.25C87.5688 39.01 87.7921 38.8233 88.0721 38.69C88.3588 38.5567 88.6788 38.49 89.0321 38.49C89.5054 38.49 89.9288 38.61 90.3021 38.85C90.6821 39.09 90.9521 39.4267 91.1121 39.86L90.3521 40.21C90.2321 39.93 90.0521 39.71 89.8121 39.55C89.5721 39.3833 89.3021 39.3 89.0021 39.3C88.7288 39.3 88.5121 39.37 88.3521 39.51C88.1921 39.6433 88.1121 39.8133 88.1121 40.02C88.1121 40.1733 88.1521 40.3 88.2321 40.4C88.3121 40.4933 88.4088 40.5667 88.5221 40.62C88.6354 40.6667 88.7454 40.7067 88.8521 40.74L89.7321 41C90.1721 41.1267 90.5121 41.3233 90.7521 41.59C90.9988 41.8567 91.1221 42.1767 91.1221 42.55C91.1221 42.85 91.0388 43.12 90.8721 43.36C90.7054 43.6 90.4754 43.7867 90.1821 43.92C89.8888 44.0533 89.5488 44.12 89.1621 44.12ZM92.4395 44V36.43H93.3695V39.66L93.1995 39.57C93.3329 39.23 93.5462 38.9667 93.8395 38.78C94.1395 38.5867 94.4895 38.49 94.8895 38.49C95.2762 38.49 95.6195 38.5767 95.9195 38.75C96.2262 38.9233 96.4662 39.1633 96.6395 39.47C96.8195 39.7767 96.9095 40.1233 96.9095 40.51V44H95.9695V40.81C95.9695 40.51 95.9129 40.2567 95.7995 40.05C95.6929 39.8433 95.5429 39.6833 95.3495 39.57C95.1562 39.45 94.9329 39.39 94.6795 39.39C94.4329 39.39 94.2095 39.45 94.0095 39.57C93.8095 39.6833 93.6529 39.8467 93.5395 40.06C93.4262 40.2667 93.3695 40.5167 93.3695 40.81V44H92.4395ZM101.13 44.12C100.697 44.12 100.3 44.0233 99.9403 43.83C99.587 43.6367 99.3136 43.3633 99.1203 43.01L99.2503 42.85V44H98.3403V36.43H99.2703V39.77L99.1303 39.54C99.3303 39.22 99.6036 38.9667 99.9503 38.78C100.297 38.5867 100.694 38.49 101.14 38.49C101.647 38.49 102.1 38.6133 102.5 38.86C102.907 39.1067 103.227 39.4433 103.46 39.87C103.694 40.29 103.81 40.77 103.81 41.31C103.81 41.8367 103.694 42.3133 103.46 42.74C103.227 43.1667 102.907 43.5033 102.5 43.75C102.1 43.9967 101.644 44.12 101.13 44.12ZM101.06 43.22C101.4 43.22 101.704 43.1367 101.97 42.97C102.237 42.8033 102.444 42.5767 102.59 42.29C102.744 41.9967 102.82 41.67 102.82 41.31C102.82 40.9367 102.744 40.61 102.59 40.33C102.444 40.0433 102.237 39.8167 101.97 39.65C101.704 39.4767 101.4 39.39 101.06 39.39C100.72 39.39 100.414 39.4733 100.14 39.64C99.8736 39.8067 99.6603 40.0367 99.5003 40.33C99.347 40.6167 99.2703 40.9433 99.2703 41.31C99.2703 41.67 99.347 41.9967 99.5003 42.29C99.6603 42.5767 99.8736 42.8033 100.14 42.97C100.414 43.1367 100.72 43.22 101.06 43.22ZM107.69 44.12C107.17 44.12 106.7 44 106.28 43.76C105.86 43.5133 105.526 43.1767 105.28 42.75C105.033 42.3233 104.91 41.84 104.91 41.3C104.91 40.76 105.03 40.28 105.27 39.86C105.516 39.44 105.85 39.1067 106.27 38.86C106.69 38.6133 107.163 38.49 107.69 38.49C108.21 38.49 108.68 38.6133 109.1 38.86C109.52 39.1 109.85 39.43 110.09 39.85C110.336 40.27 110.46 40.7533 110.46 41.3C110.46 41.8467 110.333 42.3333 110.08 42.76C109.826 43.18 109.49 43.5133 109.07 43.76C108.656 44 108.196 44.12 107.69 44.12ZM107.69 43.22C108.023 43.22 108.323 43.1367 108.59 42.97C108.863 42.8033 109.076 42.5733 109.23 42.28C109.39 41.9867 109.47 41.66 109.47 41.3C109.47 40.9333 109.39 40.61 109.23 40.33C109.076 40.0433 108.863 39.8167 108.59 39.65C108.323 39.4767 108.023 39.39 107.69 39.39C107.35 39.39 107.043 39.4767 106.77 39.65C106.503 39.8167 106.29 40.0433 106.13 40.33C105.97 40.61 105.89 40.9333 105.89 41.3C105.89 41.66 105.97 41.9867 106.13 42.28C106.29 42.5733 106.503 42.8033 106.77 42.97C107.043 43.1367 107.35 43.22 107.69 43.22ZM113.353 44.12C112.999 44.12 112.686 44.0567 112.413 43.93C112.146 43.7967 111.936 43.6167 111.783 43.39C111.629 43.1567 111.553 42.89 111.553 42.59C111.553 42.3033 111.613 42.0467 111.733 41.82C111.859 41.5867 112.053 41.39 112.313 41.23C112.579 41.07 112.913 40.9567 113.313 40.89L115.313 40.56V41.34L113.523 41.64C113.176 41.7 112.923 41.81 112.763 41.97C112.609 42.13 112.533 42.3267 112.533 42.56C112.533 42.78 112.619 42.9633 112.793 43.11C112.973 43.2567 113.196 43.33 113.463 43.33C113.803 43.33 114.096 43.26 114.343 43.12C114.596 42.9733 114.793 42.7767 114.933 42.53C115.079 42.2833 115.153 42.01 115.153 41.71V40.34C115.153 40.0467 115.043 39.81 114.823 39.63C114.609 39.4433 114.326 39.35 113.973 39.35C113.666 39.35 113.393 39.43 113.153 39.59C112.919 39.7433 112.746 39.95 112.633 40.21L111.823 39.79C111.923 39.5433 112.083 39.3233 112.303 39.13C112.523 38.93 112.779 38.7733 113.073 38.66C113.366 38.5467 113.673 38.49 113.993 38.49C114.406 38.49 114.769 38.57 115.083 38.73C115.396 38.8833 115.639 39.1 115.813 39.38C115.993 39.6533 116.083 39.9733 116.083 40.34V44H115.173V42.98L115.343 43.04C115.229 43.2533 115.076 43.44 114.883 43.6C114.689 43.76 114.463 43.8867 114.203 43.98C113.943 44.0733 113.659 44.12 113.353 44.12ZM117.625 44V38.61H118.535V39.6L118.435 39.46C118.561 39.1533 118.755 38.9267 119.015 38.78C119.275 38.6267 119.591 38.55 119.965 38.55H120.295V39.43H119.825C119.445 39.43 119.138 39.55 118.905 39.79C118.671 40.0233 118.555 40.3567 118.555 40.79V44H117.625ZM123.671 44.12C123.164 44.12 122.707 43.9967 122.301 43.75C121.901 43.5033 121.584 43.1667 121.351 42.74C121.117 42.3133 121.001 41.8367 121.001 41.31C121.001 40.77 121.117 40.29 121.351 39.87C121.584 39.4433 121.901 39.1067 122.301 38.86C122.707 38.6133 123.164 38.49 123.671 38.49C124.117 38.49 124.514 38.5867 124.861 38.78C125.207 38.9667 125.481 39.22 125.681 39.54L125.531 39.77V36.43H126.471V44H125.561V42.85L125.681 43.01C125.494 43.3633 125.221 43.6367 124.861 43.83C124.507 44.0233 124.111 44.12 123.671 44.12ZM123.751 43.22C124.091 43.22 124.394 43.1367 124.661 42.97C124.927 42.8033 125.137 42.5767 125.291 42.29C125.451 41.9967 125.531 41.67 125.531 41.31C125.531 40.9433 125.451 40.6167 125.291 40.33C125.137 40.0367 124.927 39.8067 124.661 39.64C124.394 39.4733 124.091 39.39 123.751 39.39C123.417 39.39 123.114 39.4767 122.841 39.65C122.574 39.8167 122.364 40.0433 122.211 40.33C122.057 40.61 121.981 40.9367 121.981 41.31C121.981 41.67 122.057 41.9967 122.211 42.29C122.364 42.5767 122.574 42.8033 122.841 42.97C123.107 43.1367 123.411 43.22 123.751 43.22Z" fill="#6C7278"/>
</svg>
